<svg id="Capa_1" enable-background="new 0 0 511.759 511.759" height="512" viewBox="0 0 511.759 511.759" width="512" xmlns="http://www.w3.org/2000/svg"><path d="m437.931 504.259h-364.102c-9.901 0-17.927-8.026-17.927-17.927v-460.904c0-9.901 8.026-17.927 17.927-17.927h364.102c9.901 0 17.927 8.026 17.927 17.927v460.904c0 9.9-8.026 17.927-17.927 17.927z" fill="#ebebeb"/><path d="m455.858 105.861h-399.956v-80.433c0-9.901 8.026-17.927 17.927-17.927h364.102c9.901 0 17.927 8.026 17.927 17.927z" fill="#fac600"/><path d="m455.86 25.426v460.907c0 9.901-8.031 17.922-17.932 17.922h-20.982c9.901 0 17.922-8.021 17.922-17.922v-460.907c0-9.901-8.021-17.922-17.922-17.922h20.982c9.901 0 17.932 8.021 17.932 17.922z" fill="#d3d1d1"/><path d="m455.86 25.426v80.438h-20.992v-80.438c0-9.901-8.021-17.922-17.922-17.922h20.982c9.901 0 17.932 8.021 17.932 17.922z" fill="#e0ae10"/><g fill="#5a5a5a"><path d="m299.236 82.272h15.651c2.745 0 4.97-2.225 4.97-4.97v-15.651c0-2.745-2.225-4.97-4.97-4.97h-20.621v20.621c0 2.745 2.226 4.97 4.97 4.97z"/><path d="m248.054 82.272h15.651c2.745 0 4.97-2.225 4.97-4.97v-20.621h-25.591v20.621c0 2.745 2.226 4.97 4.97 4.97z"/><path d="m196.873 82.272h15.651c2.745 0 4.97-2.225 4.97-4.97v-20.621h-20.621c-2.745 0-4.97 2.225-4.97 4.97v15.651c-.001 2.745 2.225 4.97 4.97 4.97z"/><path d="m268.675 56.681h25.591v-20.621c0-2.745-2.225-4.97-4.97-4.97h-15.651c-2.745 0-4.97 2.225-4.97 4.97z"/><path d="m217.493 56.681h25.591v-20.621c0-2.745-2.225-4.97-4.97-4.97h-15.651c-2.745 0-4.97 2.225-4.97 4.97z"/></g><circle cx="383.813" cy="435.898" fill="#0593fc" r="30.003"/><path d="m413.816 435.898c0 16.572-13.431 30.003-30.003 30.003-11.651 0-21.762-6.641-26.723-16.362 4.131 2.15 8.821 3.36 13.801 3.36 16.572 0 30.003-13.431 30.003-30.003 0-4.911-1.18-9.551-3.28-13.641 9.631 4.991 16.202 15.052 16.202 26.643z" fill="#0182fc"/><circle cx="185.391" cy="223.465" fill="#0593fc" r="87.448"/><path d="m272.841 223.464c0 48.298-39.152 87.449-87.449 87.449-9.798 0-19.226-1.61-28.025-4.591 4.411.688 8.925 1.041 13.527 1.041 48.298 0 87.449-39.152 87.449-87.443 0-38.511-24.888-71.204-59.461-82.87 41.894 6.489 73.959 42.708 73.959 86.414z" fill="#0182fc"/><path d="m225.006 294.184v7.259c-11.892 6.056-25.351 9.47-39.615 9.47s-27.723-3.413-39.615-9.47v-7.259c0-15.568 12.629-28.188 28.197-28.188h22.835c15.569-.001 28.198 12.62 28.198 28.188z" fill="#fac600"/><path d="m225.006 294.186v7.259c-3.557 1.804-7.25 3.38-11.062 4.701v-7.936c0-14.907-6.751-27.579-20.083-32.212h2.948c15.568 0 28.197 12.62 28.197 28.188z" fill="#e0ae10"/><path d="m174.288 161.504-22.24 9.198c-4.728 1.955-7.213 7.167-5.758 12.071l3.188 10.741h35.913.001 35.913l3.188-10.741c1.456-4.905-1.03-10.116-5.758-12.071l-22.24-9.198c-7.111-2.941-15.097-2.941-22.207 0z" fill="#fac600"/><path d="m224.489 182.771-3.185 10.74h-11.951l3.795-15.399c1.101-3.718.297-7.589-1.897-10.511l7.488 3.1c4.725 1.956 7.207 7.165 5.75 12.07z" fill="#e0ae10"/><path d="m221.776 213.697h-.473v-20.182h-71.826v20.182h-.473c-4.405 0-7.977 3.571-7.977 7.977 0 4.405 3.571 7.977 7.977 7.977h.473v.255c0 14.318 11.607 25.925 25.924 25.925h19.977c14.318 0 25.924-11.607 25.924-25.925v-.255h.473c4.405 0 7.977-3.571 7.977-7.977.001-4.406-3.571-7.977-7.976-7.977z" fill="#fed2a4"/><path d="m229.754 221.673c0 4.404-3.573 7.976-7.976 7.976h-.476v.258c0 14.315-11.603 25.922-25.922 25.922h-7.448c13.488-.909 24.148-12.142 24.148-25.864v-36.392l9.222-.058v20.182h.476c2.202 0 4.195.894 5.638 2.338s2.338 3.436 2.338 5.638z" fill="#ffbd86"/><path d="m185.391 193.515s-35.886 0-35.914 0c0 0 2.582 4.456 4.241 6.571 2.08 2.65 4.475 5.065 7.182 7.076 8.752 6.503 19.998 9.429 30.8 7.824 5.977-.888 11.715-3.161 16.665-6.629 1.597-1.119 3.11-2.361 4.53-3.698 3.417-3.217 7.117-8.01 8.409-11.144z" fill="#5a5a5a"/><path d="m221.304 193.511c-1.287 3.134-4.989 7.928-8.411 11.147-1.414 1.338-2.931 2.583-4.531 3.701-4.947 3.464-10.681 5.734-16.661 6.624-7.801 1.16-15.831-.042-22.988-3.253 4.201.712 8.512.779 12.756.152 5.98-.889 11.714-3.168 16.669-6.632 1.592-1.118 3.108-2.363 4.531-3.702 2.414-2.27 4.972-5.336 6.717-8.038h11.918z" fill="#444"/><path d="m185.391 276.287c-5.649 0-10.229-4.58-10.229-10.229v-10.228h20.457v10.229c.001 5.648-4.579 10.228-10.228 10.228z" fill="#fed2a4"/><path d="m175.159 255.834h20.464v8.182h-20.464z" fill="#ffbd86"/><path d="m307.139 152.429h106.677c4.143 0 7.501-3.358 7.501-7.5 0-4.143-3.358-7.501-7.501-7.501h-106.677c-4.143 0-7.501 3.358-7.501 7.501s3.358 7.5 7.501 7.5z"/><path d="m307.139 183.844h106.677c4.143 0 7.501-3.358 7.501-7.501s-3.358-7.5-7.501-7.5h-106.677c-4.143 0-7.501 3.358-7.501 7.5 0 4.143 3.358 7.501 7.501 7.501z"/><path d="m307.139 215.259h106.677c4.143 0 7.501-3.358 7.501-7.501s-3.358-7.501-7.501-7.501h-106.677c-4.143 0-7.501 3.358-7.501 7.501s3.358 7.501 7.501 7.501z"/><path d="m307.139 246.674h106.677c4.143 0 7.501-3.358 7.501-7.501s-3.358-7.501-7.501-7.501h-106.677c-4.143 0-7.501 3.358-7.501 7.501s3.358 7.501 7.501 7.501z"/><path d="m307.139 278.088h106.677c4.143 0 7.501-3.358 7.501-7.501s-3.358-7.501-7.501-7.501h-106.677c-4.143 0-7.501 3.358-7.501 7.501s3.358 7.501 7.501 7.501z"/><path d="m307.139 309.502h106.677c4.143 0 7.501-3.358 7.501-7.501s-3.358-7.501-7.501-7.501h-106.677c-4.143 0-7.501 3.358-7.501 7.501 0 4.144 3.358 7.501 7.501 7.501z"/><path d="m437.931 0h-39.702c-4.143 0-7.501 3.358-7.501 7.501s3.358 7.501 7.501 7.501h39.702c5.749 0 10.426 4.677 10.426 10.426v72.932h-384.955v-72.933c0-5.749 4.677-10.426 10.427-10.426h289.73c4.143 0 7.501-3.358 7.501-7.501s-3.358-7.5-7.501-7.5h-289.73c-14.021 0-25.428 11.406-25.428 25.427v460.905c0 14.021 11.407 25.427 25.428 25.427h364.102c14.021 0 25.427-11.406 25.427-25.427v-460.905c0-14.021-11.406-25.427-25.427-25.427zm10.426 486.332c0 5.749-4.677 10.426-10.426 10.426h-364.102c-5.75 0-10.427-4.677-10.427-10.426v-372.971h384.955z"/><path d="m299.236 89.773h15.651c6.877 0 12.471-5.594 12.471-12.471v-15.651c0-6.876-5.594-12.471-12.471-12.471h-13.121v-13.12c0-6.877-5.594-12.471-12.47-12.471h-15.651c-6.877 0-12.471 5.594-12.471 12.471v13.12h-10.589v-13.12c0-6.877-5.594-12.471-12.471-12.471h-15.651c-6.877 0-12.471 5.594-12.471 12.471v13.12h-13.121c-6.876 0-12.47 5.594-12.47 12.471v15.651c0 6.877 5.594 12.471 12.47 12.471h15.651c6.877 0 12.471-5.594 12.471-12.471v-13.12h10.59v13.12c0 6.877 5.594 12.471 12.47 12.471h15.651c6.877 0 12.471-5.594 12.471-12.471v-13.12h10.589v13.12c.001 6.876 5.595 12.471 12.472 12.471zm2.531-25.592h10.59v10.59h-10.59zm-91.774 10.59h-10.589v-10.59h10.589zm25.591-25.591h-10.59v-10.589h10.59zm25.591 25.591h-10.589v-10.59h10.589zm15.001-25.591v-10.589h10.589v10.589z"/><path d="m97.943 348.389h315.873c4.143 0 7.501-3.358 7.501-7.501s-3.358-7.501-7.501-7.501h-315.873c-4.143 0-7.501 3.358-7.501 7.501s3.358 7.501 7.501 7.501z"/><path d="m97.943 382.393h315.873c4.143 0 7.501-3.358 7.501-7.501s-3.358-7.501-7.501-7.501h-315.873c-4.143 0-7.501 3.358-7.501 7.501s3.358 7.501 7.501 7.501z"/><path d="m383.813 398.394c-20.68 0-37.504 16.824-37.504 37.504s16.824 37.504 37.504 37.504 37.504-16.824 37.504-37.504-16.824-37.504-37.504-37.504zm0 60.006c-12.408 0-22.502-10.095-22.502-22.502 0-12.408 10.095-22.502 22.502-22.502s22.502 10.095 22.502 22.502c0 12.408-10.094 22.502-22.502 22.502z"/><path d="m97.943 473.402h34.924c4.143 0 7.501-3.358 7.501-7.501s-3.358-7.501-7.501-7.501h-34.924c-4.143 0-7.501 3.358-7.501 7.501s3.358 7.501 7.501 7.501z"/><path d="m203.135 458.4h-34.924c-4.143 0-7.501 3.358-7.501 7.501s3.358 7.501 7.501 7.501h34.924c4.143 0 7.501-3.358 7.501-7.501s-3.358-7.501-7.501-7.501z"/><path d="m185.391 128.516c-52.355 0-94.949 42.593-94.949 94.948s42.594 94.949 94.949 94.949c27.119 0 53.007-11.64 71.025-31.934 2.75-3.098 2.469-7.839-.629-10.589-3.1-2.752-7.84-2.469-10.589.629-3.968 4.469-8.392 8.434-13.166 11.862-2.128-12.947-11.256-23.561-23.355-27.839 10.119-4.409 17.659-13.665 19.623-24.834 5.283-2.465 8.953-7.829 8.953-14.034 0-6.006-3.438-11.224-8.449-13.789v-13.277l2.879-9.701c2.556-8.614-1.779-17.701-10.083-21.137l-22.24-9.198c-9.009-3.725-18.931-3.724-27.939 0l-22.24 9.198c-8.304 3.434-12.639 12.521-10.083 21.137l2.878 9.698v13.28c-5.011 2.565-8.449 7.783-8.449 13.789 0 6.205 3.67 11.568 8.953 14.034 1.963 11.17 9.504 20.426 19.623 24.834-12.086 4.273-21.206 14.87-23.346 27.799-20.156-14.529-33.314-38.188-33.314-64.877 0-44.083 35.864-79.947 79.948-79.947 44.083 0 79.947 35.864 79.947 79.947 0 8.644-1.369 17.142-4.069 25.258-1.308 3.93.818 8.177 4.75 9.484 3.927 1.309 8.177-.818 9.484-4.75 3.209-9.646 4.836-19.736 4.836-29.992.001-52.355-42.593-94.948-94.948-94.948zm-30.476 49.117 22.24-9.198c5.312-2.198 11.163-2.197 16.473 0l22.239 9.198c1.182.488 1.799 1.781 1.435 3.006l-1.595 5.375h-60.63l-1.595-5.374c-.365-1.225.252-2.518 1.433-3.007zm50.746 23.383c-.526.421-1.061.82-1.598 1.198-3.974 2.783-8.63 4.634-13.465 5.353-8.782 1.306-17.974-1.038-25.223-6.425-.057-.042-.112-.084-.168-.126zm-48.683 28.889v-.255c0-4.143-3.358-7.501-7.5-7.501h-.473c-.263 0-.476-.213-.476-.476s.213-.477.476-.477h.473c4.143 0 7.5-3.358 7.5-7.501v-.122c8.422 6.077 18.614 9.343 28.845 9.343 2.332 0 4.667-.169 6.981-.514 7.125-1.06 13.996-3.792 19.864-7.904.381-.267.758-.545 1.134-.826v.022c0 4.143 3.358 7.501 7.501 7.501h.473c.263 0 .476.214.476.477s-.213.476-.476.476h-.473c-4.143 0-7.501 3.358-7.501 7.501v.255c0 10.159-8.264 18.423-18.422 18.424h-19.979c-10.159 0-18.423-8.264-18.423-18.423zm31.141 33.426v2.728c0 1.504-1.224 2.728-2.728 2.728s-2.728-1.224-2.728-2.728v-2.728zm-34.841 30.852c0-9.892 6.989-18.157 16.285-20.182 2.919 5.794 8.909 9.787 15.828 9.787 6.926 0 12.921-4.001 15.837-9.806 9.294 2.031 16.276 10.311 16.276 20.201v2.479c-10.021 4.398-20.942 6.75-32.114 6.75-11.419 0-22.278-2.424-32.114-6.756v-2.473z"/></svg>