<svg height="464pt" viewBox="-4 0 464 464" width="464pt" xmlns="http://www.w3.org/2000/svg"><path d="m296 304h40v-192h-8c-17.671875 0-32 14.328125-32 32zm0 0" fill="#fec9a3"/><path d="m387.710938 16.273438c-7.117188-12.660157-21.890626-18.914063-35.933594-15.214844-14.042969 3.699218-23.816406 16.417968-23.777344 30.941406v16c0 9.035156 3.816406 17.648438 10.511719 23.714844 6.695312 6.066406 15.640625 9.019531 24.632812 8.132812 16.691407-2.078125 29.136719-16.402344 28.855469-33.222656v-14.625c-.035156-5.527344-1.511719-10.949219-4.289062-15.726562zm0 0" fill="#fec9a3"/><path d="m391.703125 8s-10.816406 0-10.902344-.0625c-5.5-4.902344-12.550781-7.710938-19.914062-7.9375-18.433594.390625-33.109375 15.5625-32.886719 34v10.929688c-.003906.085937.03125.171874.101562.230468.066407.058594.15625.082032.242188.0625 17.074219-3.386718 33.355469-9.953125 48-19.359375 1.6875-1.199219 3.707031-1.847656 5.777344-1.863281 5.457031 0 9.878906 4.421875 9.878906 9.878906v22.121094c0 21.96875 17.71875 39.828125 39.6875 40 .167969.003906.308594-.128906.3125-.296875v-47.414063c0-22.253906-18.042969-40.292968-40.296875-40.289062zm0 0" fill="#ffa230"/><path d="m424 304h-128l32-120c-9.664062-9.664062-12.472656-24.238281-7.089844-36.800781l15.089844-35.199219h72v96zm0 0" fill="#4398d1"/><path d="m352 432h16v32h-16zm0 0"/><path d="m352 432h16v32h-16zm0 0" fill="#4398d1"/><path d="m456 304h-112v-88h24l8 8h80zm0 0" fill="#ffa230"/><path d="m408 304h-32l32-104v-88c17.671875 0 32 14.328125 32 32v56zm0 0" fill="#fec9a3"/><path d="m136 440v-168h-96v168l-16 24h128zm0 0" fill="#22689c"/><path d="m128 112h-80c-26.507812 0-48 21.492188-48 48v112h176v-112c0-26.507812-21.492188-48-48-48zm0 0" fill="#d6d9db"/><path d="m0 272h40v32h-40zm0 0" fill="#fec9a3"/><path d="m80 304h16v160h-16zm0 0" fill="#0a4a7a"/><path d="m88 0c17.671875 0 32 14.328125 32 32v16c0 17.671875-14.328125 32-32 32s-32-14.328125-32-32v-16c0-17.671875 14.328125-32 32-32zm0 0" fill="#fec9a3"/><path d="m80 112h16v136h-16zm0 0" fill="#4398d1"/><path d="m24 160h16v112h-16zm0 0" fill="#c0c2c4"/><path d="m272 440v-168h-96v168l-16 24h128zm0 0" fill="#22689c"/><path d="m272 272h40v32h-40zm0 0" fill="#fec9a3"/><path d="m216 304h16v160h-16zm0 0" fill="#0a4a7a"/><path d="m224 0c17.671875 0 32 14.328125 32 32v16c0 17.671875-14.328125 32-32 32s-32-14.328125-32-32v-16c0-17.671875 14.328125-32 32-32zm0 0" fill="#fec9a3"/><path d="m88 304h136v80h-136zm0 0" fill="#753d07"/><path d="m304 464h32l24-32h-40zm0 0" fill="#4398d1"/><path d="m320 304h40v128h-40zm0 0" fill="#fec9a3"/><path d="m360 304h40v128h-40zm0 0" fill="#fec9a3"/><path d="m360 432 24 32h32l-16-32zm0 0" fill="#4398d1"/><path d="m320 304h80v16h-80zm0 0" fill="#fcc095"/><path d="m352 304h16v128h-16zm0 0" fill="#f0af89"/><path d="m88 304v24l64 24 72-24v-24zm0 0" fill="#834a14"/><path d="m136 272h40v32h-40zm0 0" fill="#fec9a3"/><path d="m264 112h-80c-26.507812 0-48 21.492188-48 48v112h176v-112c0-26.507812-21.492188-48-48-48zm0 0" fill="#eaeef0"/><path d="m216 112h16v136h-16zm0 0" fill="#4398d1"/><path d="m272 160h16v112h-16zm0 0" fill="#c0c2c4"/><path d="m160 160h16v112h-16zm0 0" fill="#c0c2c4"/><g fill="#1e5c8a"><path d="m40 272h96v16h-96zm0 0"/><path d="m176 272h96v16h-96zm0 0"/></g></svg>