<?xml version="1.0" encoding="iso-8859-1"?>
<!-- Generator: Adobe Illustrator 19.0.0, SVG Export Plug-In . SVG Version: 6.00 Build 0)  -->
<svg version="1.1" id="Capa_1" xmlns="http://www.w3.org/2000/svg" xmlns:xlink="http://www.w3.org/1999/xlink" x="0px" y="0px"
	 viewBox="0 0 511.999 511.999" style="enable-background:new 0 0 511.999 511.999;" xml:space="preserve">
<path style="fill:#C9C6CA;" d="M496.484,328.144H127.742c-4.427,0-8.016-3.589-8.016-8.016v-16.032c0-4.427,3.589-8.016,8.016-8.016
	h368.742c4.427,0,8.016,3.589,8.016,8.016v16.032C504.5,324.555,500.911,328.144,496.484,328.144z"/>
<path style="fill:#B7B2B8;" d="M127.742,328.144h256.516v-32.065H127.742c-4.427,0-8.016,3.589-8.016,8.016v16.032
	C119.726,324.555,123.315,328.144,127.742,328.144z"/>
<path style="fill:#5D5360;" d="M159.806,55.596h304.613c13.282,0,24.048,10.767,24.048,24.048v216.435h-352.71V79.644
	C135.758,66.363,146.525,55.596,159.806,55.596z"/>
<rect x="167.82" y="87.659" style="fill:#EDEBED;" width="288.58" height="176.35"/>
<polygon style="fill:#DBD9DC;" points="194.542,87.66 167.823,87.66 167.823,264.015 429.683,264.015 "/>
<path style="fill:#EDEBED;" d="M280.048,272.031H87.661v-32.065c0-4.427,3.589-8.016,8.016-8.016h176.355
	c4.427,0,8.016,3.589,8.016,8.016L280.048,272.031L280.048,272.031z"/>
<path style="fill:#C9C6CA;" d="M344.177,424.338H23.532c-8.854,0-16.032-7.178-16.032-16.032V280.047
	c0-8.854,7.178-16.032,16.032-16.032h320.645c8.854,0,16.032,7.178,16.032,16.032v128.258
	C360.21,417.16,353.032,424.338,344.177,424.338z"/>
<path style="fill:#9C969E;" d="M23.532,424.338h320.645c8.854,0,16.032-7.178,16.032-16.032v-48.097H7.5v48.097
	C7.5,417.16,14.678,424.338,23.532,424.338z"/>
<rect x="7.5" y="360.209" style="fill:#867E88;" width="352.71" height="24.05"/>
<path style="fill:#5D5360;" d="M304.097,392.273H63.613c-4.427,0-8.016-3.589-8.016-8.016v-24.048h256.516v24.048
	C312.113,388.684,308.524,392.273,304.097,392.273z"/>
<path style="fill:#EDEBED;" d="M87.661,360.209h192.387v88.177c0,4.427-3.589,8.016-8.016,8.016H95.677
	c-4.427,0-8.016-3.589-8.016-8.016V360.209z"/>
<rect x="328.14" y="151.789" style="fill:#BEE673;" width="32.06" height="48.1"/>
<rect x="392.27" y="151.789" style="fill:#FFFFFF;" width="32.06" height="48.1"/>
<rect x="87.66" y="360.209" style="fill:#DBD9DC;" width="192.39" height="24.691"/>
<rect x="264.02" y="151.789" style="fill:#FFE17D;" width="32.06" height="48.1"/>
<rect x="199.89" y="151.789" style="fill:#5D5360;" width="32.06" height="48.1"/>
<path d="M496.484,288.58h-0.516V79.644c0-17.396-14.152-31.548-31.548-31.548H159.807c-17.396,0-31.548,14.152-31.548,31.548
	v120.242c0,4.142,3.358,7.5,7.5,7.5s7.5-3.358,7.5-7.5V79.644c0-9.125,7.423-16.548,16.548-16.548H464.42
	c9.125,0,16.548,7.423,16.548,16.548V288.58h-88.693c-4.142,0-7.5,3.358-7.5,7.5s3.358,7.5,7.5,7.5h104.209
	c0.285,0,0.516,0.231,0.516,0.516v16.032c0,0.285-0.231,0.516-0.516,0.516h-104.21c-4.142,0-7.5,3.358-7.5,7.5s3.358,7.5,7.5,7.5
	h104.209c8.556,0,15.516-6.96,15.516-15.516v-16.032C512,295.54,505.04,288.58,496.484,288.58z"/>
<path d="M392.274,271.515h64.129c4.142,0,7.5-3.358,7.5-7.5V87.66c0-4.142-3.358-7.5-7.5-7.5h-288.58c-4.142,0-7.5,3.358-7.5,7.5
	v112.226c0,4.142,3.358,7.5,7.5,7.5s7.5-3.358,7.5-7.5V95.16h273.581v161.355h-56.629c-4.142,0-7.5,3.358-7.5,7.5
	S388.132,271.515,392.274,271.515z"/>
<path d="M344.177,256.515h-56.629v-16.548c0-8.556-6.96-15.516-15.516-15.516H95.677c-8.556,0-15.516,6.96-15.516,15.516v16.548
	H23.532C10.557,256.515,0,267.072,0,280.047v128.258c0,12.976,10.557,23.532,23.532,23.532h32.065c4.142,0,7.5-3.358,7.5-7.5
	s-3.358-7.5-7.5-7.5H23.532c-4.705,0-8.532-3.828-8.532-8.532v-40.597h33.097v16.549c0,8.556,6.96,15.516,15.516,15.516h16.548
	v48.613c0,8.556,6.96,15.516,15.516,15.516h176.355c8.556,0,15.516-6.96,15.516-15.516v-48.613h16.548
	c8.556,0,15.516-6.96,15.516-15.516v-16.549h33.097v40.597c0,4.705-3.828,8.532-8.532,8.532h-32.064c-4.142,0-7.5,3.358-7.5,7.5
	s3.358,7.5,7.5,7.5h32.064c12.976,0,23.532-10.557,23.532-23.532V280.047C367.709,267.072,357.153,256.515,344.177,256.515z
	 M95.161,239.967c0-0.285,0.231-0.516,0.516-0.516h176.355c0.285,0,0.516,0.231,0.516,0.516v16.548H95.161V239.967z M63.613,384.773
	c-0.285,0-0.516-0.231-0.516-0.516v-16.549h17.064v17.065H63.613z M272.548,448.386c0,0.285-0.231,0.516-0.516,0.516H95.677
	c-0.285,0-0.516-0.231-0.516-0.516v-80.678h177.387V448.386z M304.613,384.257c0,0.285-0.231,0.516-0.516,0.516h-16.548v-17.065
	h17.064V384.257z M15,352.708v-72.661c0-4.705,3.828-8.532,8.532-8.532h320.645c4.705,0,8.532,3.828,8.532,8.532v72.661H15z"/>
<path d="M191.871,320.644h-16.032c-4.142,0-7.5,3.358-7.5,7.5s3.358,7.5,7.5,7.5h16.032c4.142,0,7.5-3.358,7.5-7.5
	S196.013,320.644,191.871,320.644z"/>
<path d="M239.968,384.773H127.742c-4.142,0-7.5,3.358-7.5,7.5s3.358,7.5,7.5,7.5h112.226c4.142,0,7.5-3.358,7.5-7.5
	S244.11,384.773,239.968,384.773z"/>
<path d="M239.968,416.838H127.742c-4.142,0-7.5,3.358-7.5,7.5s3.358,7.5,7.5,7.5h112.226c4.142,0,7.5-3.358,7.5-7.5
	S244.11,416.838,239.968,416.838z"/>
<path d="M239.968,320.644h-16.032c-4.142,0-7.5,3.358-7.5,7.5s3.358,7.5,7.5,7.5h16.032c4.142,0,7.5-3.358,7.5-7.5
	S244.11,320.644,239.968,320.644z"/>
<path d="M143.774,320.644h-16.033c-4.142,0-7.5,3.358-7.5,7.5s3.358,7.5,7.5,7.5h16.033c4.142,0,7.5-3.358,7.5-7.5
	S147.917,320.644,143.774,320.644z"/>
<path d="M231.952,207.386c4.142,0,7.5-3.358,7.5-7.5v-48.097c0-4.142-3.358-7.5-7.5-7.5h-32.064c-4.142,0-7.5,3.358-7.5,7.5v48.097
	c0,4.142,3.358,7.5,7.5,7.5H231.952z M207.387,159.29h17.064v33.097h-17.064V159.29z"/>
<path d="M296.081,207.386c4.142,0,7.5-3.358,7.5-7.5v-48.097c0-4.142-3.358-7.5-7.5-7.5h-32.064c-4.142,0-7.5,3.358-7.5,7.5v48.097
	c0,4.142,3.358,7.5,7.5,7.5H296.081z M271.516,159.29h17.064v33.097h-17.064V159.29z"/>
<path d="M360.209,144.29h-32.064c-4.142,0-7.5,3.358-7.5,7.5v48.097c0,4.142,3.358,7.5,7.5,7.5h32.064c4.142,0,7.5-3.358,7.5-7.5
	V151.79C367.709,147.647,364.352,144.29,360.209,144.29z M352.709,192.386h-17.064v-33.097h17.064V192.386z"/>
<path d="M392.274,207.386h32.064c4.142,0,7.5-3.358,7.5-7.5v-48.097c0-4.142-3.358-7.5-7.5-7.5h-32.064c-4.142,0-7.5,3.358-7.5,7.5
	v48.097C384.774,204.029,388.132,207.386,392.274,207.386z M399.774,159.29h17.064v33.097h-17.064V159.29z"/>
<g>
</g>
<g>
</g>
<g>
</g>
<g>
</g>
<g>
</g>
<g>
</g>
<g>
</g>
<g>
</g>
<g>
</g>
<g>
</g>
<g>
</g>
<g>
</g>
<g>
</g>
<g>
</g>
<g>
</g>
</svg>
